<?xml version="1.0" encoding="UTF-8"?>
<svg version="1.1" xmlns="http://www.w3.org/2000/svg" width="500" height="500">
<path d="M0 0 C1.16789062 0.76183594 1.16789062 0.76183594 2.359375 1.5390625 C3.41511719 2.11140625 4.47085938 2.68375 5.55859375 3.2734375 C6.72340413 3.94175224 7.88608859 4.61378277 9.046875 5.2890625 C9.66409424 5.64468262 10.28131348 6.00030273 10.91723633 6.36669922 C14.48371933 8.4281162 18.0234651 10.5296892 21.546875 12.6640625 C25.77354799 15.22085321 30.07630391 17.6082364 34.42578125 19.94921875 C41.61495644 23.84534964 48.72402652 27.87353283 55.796875 31.9765625 C56.63089844 32.45955811 57.46492187 32.94255371 58.32421875 33.44018555 C62.52383577 35.87670163 66.70828605 38.33292426 70.859375 40.8515625 C75.93199104 43.92159794 81.14182034 46.72483911 86.359375 49.5390625 C92.93097689 53.10020989 99.36422304 56.88374347 105.80078125 60.68139648 C114.47382448 65.79431357 123.22154677 70.77173504 131.9921875 75.71484375 C132.99942871 76.28291748 134.00666992 76.85099121 135.04443359 77.4362793 C137.03357019 78.55760475 139.02343684 79.6776365 141.01416016 80.79614258 C146.40230254 83.83237708 151.7307105 86.94742215 157.02392578 90.14599609 C159.81004283 91.80788025 162.63257385 93.39315081 165.47241211 94.9609375 C168.17098259 96.45334667 170.84926879 97.98071336 173.52832031 99.5078125 C175.1232017 100.4060497 176.73600973 101.2723092 178.3515625 102.1328125 C179.15851563 102.596875 179.96546875 103.0609375 180.796875 103.5390625 C181.47621094 103.9103125 182.15554688 104.2815625 182.85546875 104.6640625 C187.83973245 110.87820946 185.49913008 124.74963504 185.48876953 132.55493164 C185.49012633 134.27411944 185.49190783 135.99330694 185.49407959 137.7124939 C185.49862318 142.36372065 185.49687639 147.01492512 185.4937005 151.66615224 C185.49115814 156.55269888 185.49351992 161.43924369 185.49508667 166.32579041 C185.4969041 174.5377537 185.49451449 182.74970799 185.48974609 190.96166992 C185.48431699 200.41993468 185.486058 209.87817783 185.4915725 219.33644205 C185.49613098 227.48457874 185.49674047 235.63270898 185.49413383 243.78084654 C185.49258441 248.63483148 185.49234008 253.48880633 185.49567032 258.3427906 C185.49858848 262.91551202 185.49650192 267.48820603 185.49077606 272.06092453 C185.48946885 273.72643298 185.48980724 275.39194378 185.49203873 277.05745125 C185.52744563 306.20292124 185.52744563 306.20292124 183.359375 310.5390625 C181.91512511 311.4315426 180.425936 312.25154807 178.921875 313.0390625 C173.91797085 315.70523537 168.94034634 318.41014275 163.984375 321.1640625 C163.22463379 321.58623047 162.46489258 322.00839844 161.68212891 322.44335938 C148.46419947 329.80689628 135.34241224 337.33699593 122.31567383 345.03344727 C116.93426853 348.21060644 111.51768855 351.3196772 106.0859375 354.41015625 C100.83403842 357.40325111 95.60956978 360.4438791 90.38061523 363.47680664 C85.78067085 366.14303404 81.17060828 368.78933247 76.546875 371.4140625 C68.47176316 376.01621202 60.48552194 380.76817172 52.48828125 385.50390625 C46.79404872 388.87572076 41.08366362 392.21854199 35.359375 395.5390625 C34.67343262 395.93802734 33.98749023 396.33699219 33.28076172 396.74804688 C29.26130001 399.08583611 25.2379612 401.4164095 21.20703125 403.734375 C18.04920215 405.55200301 14.91410044 407.40137725 11.79296875 409.28125 C10.37770962 410.11736601 8.96235009 410.95331213 7.546875 411.7890625 C6.90782227 412.18399902 6.26876953 412.57893555 5.61035156 412.98583984 C2.65038202 414.71183168 0.68904083 415.54812831 -2.765625 415.453125 C-5.78330631 414.49369915 -8.13452384 413.32717223 -10.828125 411.6640625 C-11.87484375 411.03113281 -12.9215625 410.39820313 -14 409.74609375 C-14.57814453 409.39369629 -15.15628906 409.04129883 -15.75195312 408.67822266 C-19.3313708 406.51928226 -22.95810686 404.4414354 -26.578125 402.3515625 C-27.3834668 401.88500244 -28.18880859 401.41844238 -29.01855469 400.93774414 C-33.27941264 398.47112897 -37.54775642 396.01854937 -41.828125 393.5859375 C-51.32952403 388.18606582 -60.76162537 382.69755764 -70.11425781 377.04370117 C-77.01489044 372.88446222 -83.99475793 368.87528515 -91.00048828 364.89624023 C-96.36804904 361.84551533 -101.70500974 358.7502496 -107.015625 355.6015625 C-114.66148094 351.07265829 -122.3960408 346.70784286 -130.14111328 342.35131836 C-136.42336011 338.81125617 -142.65061702 335.19364586 -148.84301758 331.49926758 C-153.34336108 328.83590827 -157.89688425 326.27865239 -162.48046875 323.76171875 C-163.08386078 323.42972473 -163.68725281 323.09773071 -164.30892944 322.75567627 C-167.32722205 321.09601321 -170.34927986 319.44390804 -173.37792969 317.80322266 C-174.48942383 317.19397949 -175.60091797 316.58473633 -176.74609375 315.95703125 C-178.23338989 315.14915161 -178.23338989 315.14915161 -179.75073242 314.32495117 C-186.44516517 310.18794217 -186.44516517 310.18794217 -188.640625 307.5390625 C-189.24035177 304.5576268 -189.44298621 302.38513267 -189.38233948 299.40989685 C-189.38958272 298.59582007 -189.39682597 297.78174329 -189.40428871 296.94299752 C-189.42118755 294.21704015 -189.39522798 291.49319628 -189.36938477 288.76733398 C-189.3726038 286.81251453 -189.37842071 284.85769788 -189.38664246 282.90289307 C-189.4011876 277.594956 -189.37822292 272.28777529 -189.34778333 266.97992969 C-189.32144195 261.42844671 -189.32671414 255.87698744 -189.3278656 250.32545471 C-189.32505574 241.00338068 -189.29900433 231.68159956 -189.25805664 222.35961914 C-189.21086615 211.57646865 -189.1950628 200.7936389 -189.1972633 190.01039261 C-189.19909335 179.6429158 -189.18378516 169.27554361 -189.15888786 158.90809822 C-189.1482868 154.49310553 -189.14279776 150.07814986 -189.14120674 145.66314507 C-189.13819649 140.46661486 -189.11990753 135.27035469 -189.08970833 130.07391357 C-189.08093482 128.16472591 -189.07725694 126.25550716 -189.07899094 124.34630013 C-189.08046005 121.74432646 -189.06352782 119.14311246 -189.04176331 116.54124451 C-189.04640911 115.78200776 -189.05105492 115.02277101 -189.05584151 114.24052709 C-188.997978 110.06480776 -188.66841253 107.52153746 -185.640625 104.5390625 C-183.43359375 103.1171875 -183.43359375 103.1171875 -180.828125 101.7890625 C-176.59365861 99.5696942 -172.41134987 97.29575426 -168.265625 94.9140625 C-167.07687973 94.23167185 -165.88807462 93.54938544 -164.69921875 92.8671875 C-163.73798096 92.31514648 -163.73798096 92.31514648 -162.75732422 91.75195312 C-160.39920111 90.40072411 -158.03772481 89.05547691 -155.67578125 87.7109375 C-146.86992773 82.69529519 -138.09216934 77.64239316 -129.37792969 72.46923828 C-123.00837677 68.71081566 -116.5436708 65.12905452 -110.078125 61.5390625 C-102.20877812 57.16910237 -94.48673901 52.66512424 -86.90869141 47.80908203 C-82.28064339 44.8675365 -77.51938028 42.4065379 -72.57421875 40.03125 C-67.05432254 37.2235265 -61.87926481 33.83305571 -56.640625 30.5390625 C-50.71503819 26.89656943 -44.71235414 23.45946638 -38.59375 20.15234375 C-35.42220363 18.41973971 -32.27908475 16.64340405 -29.140625 14.8515625 C-28.57126221 14.52897461 -28.00189941 14.20638672 -27.4152832 13.87402344 C-23.80241819 11.81624204 -20.2413391 9.68923503 -16.69921875 7.51171875 C-15.85101563 6.99891357 -15.0028125 6.4861084 -14.12890625 5.95776367 C-12.45185671 4.94283409 -10.78349371 3.91338468 -9.125 2.8684082 C-3.36667225 -0.58767356 -3.36667225 -0.58767356 0 0 Z " fill="#692111" transform="translate(251.640625,42.4609375)"/>
<path d="M0 0 C0.55945313 0.47050781 1.11890625 0.94101563 1.6953125 1.42578125 C-1.0546875 6.30078125 -1.0546875 6.30078125 -3.3046875 7.42578125 C-5.046875 6.8671875 -5.046875 6.8671875 -7.1796875 5.98828125 C-14.23328905 3.53485462 -21.91549654 2.93003579 -28.8046875 6.17578125 C-34.04550758 9.24992798 -34.04550758 9.24992798 -36.90234375 14.43359375 C-37.91738476 20.24790632 -36.59068599 23.55322517 -33.3046875 28.42578125 C-31.40671275 30.66542793 -29.34286984 32.69427049 -27.2265625 34.7265625 C-26.65512512 35.28901169 -26.08368774 35.85146088 -25.49493408 36.43095398 C-23.68862243 38.20749415 -21.87263038 39.97365118 -20.0546875 41.73828125 C-18.22346178 43.52170871 -16.39458541 45.30732151 -14.57159424 47.09916687 C-13.44149503 48.20946598 -12.30648855 49.31479642 -11.16619873 50.41462708 C-9.84107801 51.71407664 -8.56736556 53.06557604 -7.3046875 54.42578125 C-7.3046875 55.08578125 -7.3046875 55.74578125 -7.3046875 56.42578125 C-6.72944336 56.67650391 -6.15419922 56.92722656 -5.56152344 57.18554688 C-3.00027554 58.59306952 -1.26411358 60.2074815 0.8046875 62.26953125 C1.93583984 63.39681641 1.93583984 63.39681641 3.08984375 64.546875 C3.86714844 65.33191406 4.64445312 66.11695313 5.4453125 66.92578125 C6.23808594 67.71082031 7.03085938 68.49585938 7.84765625 69.3046875 C8.59660156 70.05621094 9.34554687 70.80773437 10.1171875 71.58203125 C10.80393555 72.27103516 11.49068359 72.96003906 12.19824219 73.66992188 C13.6953125 75.42578125 13.6953125 75.42578125 13.6953125 77.42578125 C14.2521875 77.65265625 14.8090625 77.87953125 15.3828125 78.11328125 C18.31730574 79.77880444 20.31752426 82.04799301 22.6953125 84.42578125 C24.1803125 84.92078125 24.1803125 84.92078125 25.6953125 85.42578125 C25.95346741 84.83010849 26.21162231 84.23443573 26.4776001 83.62071228 C27.80084424 81.2355599 29.07628135 80.02517311 31.17871094 78.30688477 C36.37067891 73.90766779 41.14815875 69.13500927 45.9609375 64.328125 C46.92634232 63.36594271 47.89181815 62.40383166 48.85736084 61.44178772 C50.86598296 59.43910747 52.87257486 57.43441842 54.87792969 55.4284668 C57.43700888 52.86928554 60.00293069 50.31708422 62.57062149 47.7665472 C64.56099187 45.78732932 66.54676627 43.80354853 68.53130341 41.81848335 C69.93076182 40.4207632 71.33474895 39.02758206 72.73883057 37.63450623 C81.52686943 29.03969256 81.52686943 29.03969256 84.85546875 17.6015625 C84.58779945 13.96517708 83.10148375 12.07873929 80.6953125 9.42578125 C73.5329331 4.01745395 67.44706573 3.82012359 58.6953125 4.42578125 C55.50339759 5.17682005 52.74474429 6.18533442 49.6953125 7.42578125 C48.1328125 6.17578125 48.1328125 6.17578125 46.6953125 4.42578125 C46.75390625 2.43359375 46.75390625 2.43359375 47.6953125 0.42578125 C49.48046875 -1.20703125 49.48046875 -1.20703125 51.7578125 -2.69921875 C52.49128906 -3.19679687 53.22476563 -3.694375 53.98046875 -4.20703125 C60.98632741 -7.73516151 67.94424368 -7.91303144 75.6328125 -7.88671875 C76.57060547 -7.90283203 77.50839844 -7.91894531 78.47460938 -7.93554688 C90.11100518 -7.94363332 97.17528752 -4.29888072 105.6953125 3.42578125 C106.51781494 4.16658936 106.51781494 4.16658936 107.35693359 4.92236328 C119.32831962 15.83539491 119.32831962 15.83539491 121.046875 23.484375 C122.30733646 27.25816625 125.30595221 29.5311078 128.6953125 31.42578125 C129.8296875 31.54953125 130.9640625 31.67328125 132.1328125 31.80078125 C137.54132321 32.74964278 140.1751145 36.41184119 143.6953125 40.42578125 C142.04275193 44.47406571 139.19732657 47.40048064 136.2578125 50.55078125 C135.76732422 51.08832031 135.27683594 51.62585938 134.77148438 52.1796875 C129.26816656 58.13604498 129.26816656 58.13604498 125.3203125 58.86328125 C121.35389998 58.2022125 120.09769265 56.60731172 117.6953125 53.42578125 C117.04665689 51.15548662 116.62854185 48.90179379 116.21484375 46.578125 C115.28314481 42.71822941 113.04462439 40.43776516 109.9453125 38.11328125 C106.52695495 37.06878311 103.18230182 36.69363759 99.6953125 37.42578125 C95.38342517 40.05387188 91.88023063 42.99393284 88.32421875 46.56640625 C87.83880112 47.0522821 87.35338348 47.53815796 86.85325623 48.03875732 C85.83329939 49.06171563 84.81575396 50.0870835 83.80053711 51.11474609 C82.27047135 52.66297215 80.73265225 54.20314071 79.19335938 55.7421875 C74.34066641 60.61323771 69.58435712 65.5242034 65.16186523 70.79589844 C63.61776207 72.51196847 61.97725754 73.96106559 60.1953125 75.42578125 C57.00196296 78.06100111 54.41239944 80.97357925 51.73828125 84.125 C47.61410195 88.76963023 43.12172274 93.07141023 38.6953125 97.42578125 C39.98479988 100.29075277 41.29033274 102.2392285 43.609375 104.3515625 C44.1974292 104.89312988 44.7854834 105.43469727 45.39135742 105.99267578 C46.0279126 106.56872559 46.66446777 107.14477539 47.3203125 107.73828125 C48.68382437 108.99193672 50.04709764 110.24585174 51.41015625 111.5 C52.11640137 112.14630371 52.82264648 112.79260742 53.55029297 113.45849609 C57.01392017 116.63513028 60.45100706 119.83983458 63.8828125 123.05078125 C64.55006348 123.6744458 65.21731445 124.29811035 65.90478516 124.94067383 C71.00557497 129.72915762 75.96259645 134.64053071 80.8515625 139.64453125 C83.01444764 141.75988046 85.18795678 143.75085811 87.47265625 145.7265625 C92.0562695 149.70076231 96.42795305 153.86546909 100.7578125 158.11328125 C101.9324707 159.23186523 101.9324707 159.23186523 103.13085938 160.37304688 C103.86498047 161.09556641 104.59910156 161.81808594 105.35546875 162.5625 C106.02199463 163.20920654 106.68852051 163.85591309 107.37524414 164.5222168 C108.6953125 166.42578125 108.6953125 166.42578125 108.57470703 168.46289062 C106.97531394 172.03288519 104.22914225 174.48694787 101.5078125 177.23828125 C100.94255859 177.84865234 100.37730469 178.45902344 99.79492188 179.08789062 C95.58427056 183.3660667 95.58427056 183.3660667 91.61328125 183.6328125 C87.93920768 182.113015 85.9286449 180.18334732 83.1953125 177.30078125 C82.7211792 176.80521729 82.2470459 176.30965332 81.75854492 175.79907227 C80.38832641 174.35615689 79.04125708 172.89136535 77.6953125 171.42578125 C77.02113281 170.69488281 76.34695313 169.96398437 75.65234375 169.2109375 C71.6953125 164.7651518 71.6953125 164.7651518 71.6953125 162.42578125 C71.0353125 162.42578125 70.3753125 162.42578125 69.6953125 162.42578125 C69.6953125 161.76578125 69.6953125 161.10578125 69.6953125 160.42578125 C68.79425781 160.02939453 68.79425781 160.02939453 67.875 159.625 C65.58016036 158.36242694 64.46605777 157.25320722 62.8203125 155.23828125 C59.23121423 150.99661966 55.48775187 146.92232181 51.6953125 142.86328125 C50.82350342 141.92609253 50.82350342 141.92609253 49.93408203 140.9699707 C47.00035044 137.83068841 44.02971564 134.74229012 40.98046875 131.71484375 C38.59213097 129.34283705 36.30998642 126.93332866 34.1328125 124.36328125 C31.1327534 120.88131221 27.98469469 117.6349346 24.6953125 114.42578125 C21.45299507 115.83764279 19.41663052 117.51202023 17.015625 120.09375 C16.33371094 120.82271484 15.65179688 121.55167969 14.94921875 122.30273438 C14.24667969 123.06521484 13.54414063 123.82769531 12.8203125 124.61328125 C12.12550781 125.35642578 11.43070312 126.09957031 10.71484375 126.86523438 C7.57249374 130.24133735 4.48093449 133.64434746 1.5 137.1640625 C-0.96457691 140.07130815 -3.58972165 142.74823453 -6.3046875 145.42578125 C-8.59414792 147.82502526 -10.85463913 150.25117461 -13.1171875 152.67578125 C-14.44257109 154.09257632 -15.76809703 155.50923823 -17.09375 156.92578125 C-17.77985352 157.65925781 -18.46595703 158.39273438 -19.17285156 159.1484375 C-22.7742422 162.99563996 -26.3823512 166.83650444 -29.9921875 170.67578125 C-30.66290283 171.39024414 -31.33361816 172.10470703 -32.0246582 172.84082031 C-33.25846748 174.1527347 -34.4965099 175.46068743 -35.73974609 176.76367188 C-36.99086982 178.09247847 -38.19693005 179.46366189 -39.38671875 180.84765625 C-42.14874807 183.12028323 -43.71614786 183.57567111 -47.3046875 183.42578125 C-49.97605459 181.74062329 -52.02439845 179.59260445 -54.1796875 177.30078125 C-54.77265625 176.718125 -55.365625 176.13546875 -55.9765625 175.53515625 C-58.44443498 172.99904767 -60.10132136 171.23567797 -60.97265625 167.765625 C-60.03308934 164.47439355 -58.37933731 163.26308892 -55.7421875 161.11328125 C-52.45559473 158.32591776 -49.44610832 155.6063653 -46.6796875 152.30078125 C-44.48525757 149.68536085 -42.23457242 147.41375577 -39.625 145.21484375 C-35.1261373 141.33166926 -30.96695417 137.16386334 -26.8046875 132.92578125 C-22.06111352 128.09580337 -17.26346944 123.44525932 -12.13085938 119.02929688 C-9.5612034 116.77294655 -7.19409878 114.3727687 -4.8046875 111.92578125 C-0.47069709 107.5434339 3.97555872 103.38821064 8.6953125 99.42578125 C7.38047677 96.50743908 5.97897974 94.47657196 3.68359375 92.25390625 C3.09457275 91.67648682 2.50555176 91.09906738 1.89868164 90.50415039 C1.27469482 89.90078857 0.65070801 89.29742676 0.0078125 88.67578125 C-7.73568109 81.07235336 -7.73568109 81.07235336 -10.7421875 77.48828125 C-13.07997356 74.76829014 -15.49430494 72.19075657 -18.0546875 69.6796875 C-18.73990479 69.00220459 -19.42512207 68.32472168 -20.13110352 67.62670898 C-21.52541013 66.25562201 -22.92426485 64.88914307 -24.32788086 63.52758789 C-24.96862549 62.89844482 -25.60937012 62.26930176 -26.26953125 61.62109375 C-26.853396 61.05406738 -27.43726074 60.48704102 -28.03881836 59.90283203 C-29.3046875 58.42578125 -29.3046875 58.42578125 -29.3046875 56.42578125 C-29.88347656 56.17441406 -30.46226562 55.92304688 -31.05859375 55.6640625 C-33.58752427 54.26985211 -35.2389921 52.68787767 -37.2421875 50.61328125 C-37.93570313 49.90171875 -38.62921875 49.19015625 -39.34375 48.45703125 C-40.31441406 47.4515625 -40.31441406 47.4515625 -41.3046875 46.42578125 C-42.2328125 45.49765625 -43.1609375 44.56953125 -44.1171875 43.61328125 C-45.40902217 42.32144658 -46.6865509 41.01454374 -47.9296875 39.67578125 C-51.05764409 36.83218435 -55.10001533 37.09020162 -59.0859375 37.1484375 C-62.50031253 37.57523438 -64.04080125 38.89555544 -66.3046875 41.42578125 C-68.22650815 44.62881566 -69.30571099 47.42973873 -70.2421875 51.05078125 C-71.38138807 54.66941835 -72.23356561 56.23212276 -75.3046875 58.42578125 C-78.66609725 58.93337668 -79.95227809 58.67207689 -82.76953125 56.703125 C-83.58550781 55.93097656 -84.40148437 55.15882813 -85.2421875 54.36328125 C-86.10457031 53.54859375 -86.96695313 52.73390625 -87.85546875 51.89453125 C-90.86271236 48.86330644 -93.62066122 45.74549797 -96.3046875 42.42578125 C-94.36335591 38.25417569 -92.09038493 35.10229344 -88.3046875 32.42578125 C-86.12109375 31.84375 -86.12109375 31.84375 -83.8046875 31.48828125 C-79.23031114 30.71048325 -77.26171581 29.0445925 -74.4765625 25.3984375 C-73.08810611 23.23912825 -73.08810611 23.23912825 -72.1796875 19.73828125 C-69.91555945 12.90617555 -63.51436156 8.10557847 -58.3046875 3.42578125 C-57.34949219 2.54664063 -56.39429688 1.6675 -55.41015625 0.76171875 C-40.23276902 -11.98645602 -15.59512577 -12.11004139 0 0 Z " fill="#AB6B29" transform="translate(226.3046875,162.57421875)"/>
<path d="M0 0 C2.58958419 1.43204736 5.1375278 2.92060612 7.68066406 4.43359375 C9.58011349 5.54216398 11.47985524 6.65023347 13.37988281 7.7578125 C14.774729 8.57644775 14.774729 8.57644775 16.19775391 9.41162109 C19.60559682 11.40043337 23.04547776 13.32752616 26.49316406 15.24609375 C33.20949915 19.0072414 39.88719151 22.83552062 46.55776978 26.67709351 C48.26189593 27.65839049 49.96675392 28.6384162 51.67163086 29.6184082 C56.23523064 32.25108164 60.78259257 34.88777868 65.23144531 37.7109375 C68.23136714 39.61034241 71.278745 41.22830101 74.49316406 42.74609375 C81.21273229 46.04232583 87.47537383 49.95318398 93.80566406 53.93359375 C99.72475061 57.57209107 105.72000588 61.00705684 111.83300781 64.30859375 C116.93404831 67.09707318 121.96661396 70.00578491 127.00732422 72.90136719 C129.35693872 74.25001912 131.70915317 75.59408967 134.06176758 76.9375 C135.22794136 77.60360514 136.39379253 78.27027539 137.55932617 78.9375 C140.44588545 80.58948772 143.33675302 82.2324069 146.23535156 83.86328125 C152.78807692 87.56311938 159.23611945 91.38498991 165.61816406 95.37109375 C166.3186084 95.80856934 167.01905273 96.24604492 167.74072266 96.69677734 C172.67100869 99.79893838 172.67100869 99.79893838 173.80566406 100.93359375 C173.9410329 103.40170893 174.01137572 105.84336371 174.04031372 108.31358337 C174.05316276 109.09550775 174.06601181 109.87743212 174.07925022 110.68305117 C174.12096088 113.32372515 174.15510569 115.96443902 174.18896484 118.60522461 C174.21649249 120.49060356 174.24422762 122.37597948 174.27215576 124.26135254 C174.51777451 141.50329229 174.65721913 158.74655632 174.76860237 175.98982906 C174.84521099 187.58621985 174.9538481 199.18048538 175.14306641 210.77563477 C175.30805809 220.88714777 175.41313885 230.99717944 175.44583881 241.11001879 C175.46511567 246.46309744 175.51370648 251.81219666 175.63364029 257.16404533 C175.74552088 262.20604829 175.77655119 267.24223742 175.74678802 272.28533173 C175.74985763 274.13102685 175.78186303 275.97694643 175.84561539 277.82154274 C176.21741062 289.15603836 176.21741062 289.15603836 173.80566406 293.93359375 C169.69853398 298.19792992 164.38654536 300.5931236 159.02804923 302.92671216 C155.42087309 304.56099199 152.03901262 306.57115504 148.61816406 308.55859375 C147.28478821 309.30823438 145.95030487 310.05591181 144.61425781 310.80078125 C134.07603168 316.69795673 123.6556161 322.77849905 113.26782227 328.93554688 C106.37682227 333.0164814 99.45493485 337.04054742 92.51586914 341.0390625 C86.45963143 344.53613639 80.46423246 348.12524485 74.49316406 351.765625 C71.55089871 353.52781286 68.55276688 355.16942607 65.53613281 356.80078125 C59.97870188 359.8127552 54.54366406 363.00398497 49.11816406 366.24609375 C41.9438485 370.51200132 34.7371503 374.69749514 27.44287109 378.75439453 C22.90427067 381.28857313 18.43999688 383.92956003 13.99316406 386.62109375 C12.1678737 387.71778785 10.3416285 388.8128616 8.51464844 389.90673828 C6.88359753 390.88676687 5.25853122 391.87673508 3.63378906 392.8671875 C2.67988281 393.42535156 1.72597656 393.98351562 0.74316406 394.55859375 C-0.0728125 395.04585938 -0.88878906 395.533125 -1.72949219 396.03515625 C-5.0121706 397.23169513 -6.84195426 396.86646743 -10.19433594 395.93359375 C-13.13964844 394.5078125 -13.13964844 394.5078125 -16.31933594 392.62109375 C-16.9098877 392.27425537 -17.50043945 391.92741699 -18.10888672 391.57006836 C-20.14446993 390.36944305 -22.17002988 389.15313262 -24.19433594 387.93359375 C-24.96712891 387.46920898 -25.73992187 387.00482422 -26.53613281 386.52636719 C-29.9159206 384.49499911 -33.29530426 382.46298152 -36.671875 380.42626953 C-42.38372645 376.98987987 -48.14800598 373.67377315 -53.97509766 370.43774414 C-60.74233246 366.66328819 -67.39156945 362.69361822 -74.05224609 358.73510742 C-80.09952487 355.14902808 -86.19246634 351.66606058 -92.34082031 348.25708008 C-98.30345064 344.92569784 -104.1158282 341.35904351 -109.90625 337.73779297 C-113.92318042 335.24354231 -117.96635549 333.00341374 -122.21582031 330.93237305 C-125.63938149 329.20411678 -128.90610817 327.21639145 -132.19433594 325.24609375 C-137.63859638 322.01391605 -143.10228894 318.83011759 -148.63183594 315.74609375 C-156.12696927 311.55995616 -163.56955726 307.28383784 -171.00683594 302.99609375 C-171.58907928 302.66090729 -172.17132263 302.32572083 -172.77120972 301.9803772 C-174.44024769 301.01929979 -176.10832521 300.05655501 -177.77636719 299.09375 C-178.74807861 298.53308838 -179.71979004 297.97242676 -180.72094727 297.39477539 C-182.57950314 296.29681301 -184.39823414 295.13099495 -186.19433594 293.93359375 C-186.48881582 291.3203105 -186.58561391 288.94362294 -186.55509949 286.32809448 C-186.55766276 285.53417647 -186.56022604 284.74025847 -186.56286699 283.92228234 C-186.56783014 281.2473016 -186.55127064 278.57287843 -186.53491211 275.89794922 C-186.53406638 273.98634861 -186.53453991 272.07474702 -186.53623962 270.16314697 C-186.53710313 264.96086729 -186.51942004 259.7587936 -186.49851775 254.55656195 C-186.47980996 249.12464272 -186.47800518 243.69271918 -186.47444153 238.26077271 C-186.46510368 227.96891349 -186.44046641 217.67714946 -186.41039306 207.38533223 C-186.3769031 195.67089092 -186.36037666 183.95644515 -186.34530675 172.24196792 C-186.31391834 148.13912368 -186.26112411 124.03636404 -186.19433594 99.93359375 C-185.53949219 99.56596924 -184.88464844 99.19834473 -184.20996094 98.81958008 C-181.2036431 97.13038401 -178.19898234 95.43826095 -175.19433594 93.74609375 C-174.164375 93.16794922 -173.13441406 92.58980469 -172.07324219 91.99414062 C-166.90697824 89.08194725 -161.78976955 86.13116254 -156.79082489 82.93902302 C-154.57410249 81.54298606 -152.28743767 80.3009395 -149.97558594 79.0703125 C-143.81283805 75.74595142 -137.75248738 72.25664959 -131.69433594 68.74609375 C-130.55649658 68.08826904 -129.41865723 67.43044434 -128.24633789 66.75268555 C-123.16824097 63.81673313 -118.09328954 60.87535254 -113.01855469 57.93359375 C-111.47299289 57.03774123 -109.92742034 56.14190726 -108.38183594 55.24609375 C-107.25007935 54.58988037 -107.25007935 54.58988037 -106.09545898 53.92041016 C-99.54206779 50.1249774 -92.96329559 46.37467078 -86.3828125 42.62646484 C-79.60328711 38.75724139 -72.86505629 34.82021078 -66.13183594 30.87109375 C-58.07537955 26.14677128 -49.95272043 21.58340502 -41.73925781 17.13891602 C-33.87032523 12.83847132 -26.23748991 8.16488268 -18.61791992 3.43945312 C-17.69309814 2.86775391 -16.76827637 2.29605469 -15.81542969 1.70703125 C-14.99486084 1.19575684 -14.17429199 0.68448242 -13.32885742 0.15771484 C-8.51468749 -2.60315077 -4.98132088 -2.42082884 0 0 Z M-13.06152344 4.57421875 C-14.49757935 5.42959229 -14.49757935 5.42959229 -15.96264648 6.30224609 C-16.987854 6.92309082 -18.01306152 7.54393555 -19.06933594 8.18359375 C-27.25697063 13.05977403 -35.48748952 17.79717215 -43.88183594 22.30859375 C-50.54969413 25.90394476 -57.05641044 29.62985744 -63.46386719 33.67578125 C-69.84592625 37.61431756 -76.47683497 41.14627632 -83.03100586 44.78710938 C-89.5460487 48.41740149 -95.92362832 52.16920691 -102.23339844 56.14453125 C-106.27238777 58.58497599 -110.43724514 60.75304099 -114.61743164 62.93945312 C-119.79073287 65.66594963 -124.73075609 68.69581645 -129.68652344 71.80078125 C-135.99658547 75.69375626 -142.55692599 79.16898022 -149.04882812 82.74609375 C-153.19504471 85.04095008 -157.31630283 87.37337422 -161.38798332 89.79863167 C-164.0358724 91.33838455 -166.71156972 92.63239341 -169.51547432 93.86309624 C-177.52807034 97.43774869 -177.52807034 97.43774869 -183.17899084 103.81675959 C-184.75675684 109.23014845 -184.46722747 114.80120366 -184.33056641 120.38330078 C-184.34707557 122.24376947 -184.37087372 124.1041855 -184.40136719 125.96447754 C-184.46156468 130.99535849 -184.41546379 136.0200492 -184.34614325 141.05060816 C-184.28801688 146.32398139 -184.31641962 151.59700175 -184.33206177 156.87057495 C-184.34467172 165.72315566 -184.28853491 174.57328396 -184.19091797 183.42529297 C-184.07896559 193.65014442 -184.07383353 203.87080856 -184.12629783 214.09604371 C-184.17454698 223.94769593 -184.14917247 233.79783152 -184.08969498 243.64937973 C-184.06558853 247.83535984 -184.06678512 252.02019447 -184.08843613 256.20618057 C-184.11046697 261.1377423 -184.06779467 266.06468181 -183.97572327 270.99539185 C-183.95220392 272.8011764 -183.9505803 274.60740315 -183.97279739 276.41320419 C-184.03164842 281.8631451 -183.90578845 286.72694554 -182.19433594 291.93359375 C-178.24821223 295.82943363 -174.30061056 297.74841318 -169.19433594 299.93359375 C-167.41377776 300.93979284 -165.6436977 301.96522038 -163.89355469 303.0234375 C-162.22429604 303.97496558 -160.55371003 304.92416865 -158.88183594 305.87109375 C-157.98086182 306.38414062 -157.0798877 306.8971875 -156.15161133 307.42578125 C-152.10666509 309.72631977 -148.05589892 312.01576684 -143.99121094 314.28125 C-135.81770704 318.83787872 -127.77384928 323.57030951 -119.76757812 328.4152832 C-113.46721208 332.21133229 -107.08051635 335.81760672 -100.63232422 339.35522461 C-95.30049343 342.29003127 -90.0789188 345.37285809 -84.88110352 348.53759766 C-80.01198703 351.48484789 -75.05723602 354.25554093 -70.06933594 356.99609375 C-64.96983676 359.7998853 -59.9389182 362.65298287 -55.00683594 365.74609375 C-48.14487121 370.0434858 -41.08793478 373.97482141 -34.01416016 377.91162109 C-29.23412275 380.58753469 -24.52464905 383.31448694 -19.92089844 386.28515625 C-19.10903076 386.80553467 -18.29716309 387.32591309 -17.46069336 387.86206055 C-15.94659119 388.84315558 -14.44331866 389.84124233 -12.95336914 390.85864258 C-8.85235129 393.55565392 -8.85235129 393.55565392 -4.05371094 393.43359375 C-1.11353007 391.89120379 1.69863725 390.29070977 4.49316406 388.49609375 C9.90299874 385.07897954 15.38620392 381.81503745 20.93066406 378.62109375 C21.74019531 378.15429199 22.54972656 377.68749023 23.38378906 377.20654297 C25.04087909 376.25175901 26.69826982 375.29749675 28.35595703 374.34375 C32.23846784 372.10881055 36.11609348 369.86545395 39.99316406 367.62109375 C40.76208984 367.17604492 41.53101563 366.73099609 42.32324219 366.27246094 C48.86559774 362.48323542 55.39951841 358.67960364 61.93066406 354.87109375 C62.95329346 354.27482178 63.97592285 353.6785498 65.02954102 353.06420898 C69.5187252 350.44434718 74.00518811 347.82038798 78.47753906 345.171875 C86.36911881 340.49901598 94.31816567 335.96568089 102.35351562 331.54418945 C107.86136043 328.49807528 113.20585162 325.26125259 118.54394531 321.92578125 C125.50744883 317.67262341 132.67926344 313.76846967 139.81884766 309.8203125 C143.07389473 308.01981737 146.31500994 306.2024263 149.53195477 304.33461094 C152.3101108 302.73711041 155.10860773 301.30123677 158.01245594 299.94748592 C165.53990338 296.31498491 165.53990338 296.31498491 170.73436904 290.05663991 C172.25190332 284.64915333 172.01803302 279.0984639 171.92358398 273.53149414 C171.95021259 271.67586372 171.98358413 269.82031975 172.02314758 267.96492004 C172.10859813 262.94682961 172.09307048 257.93385605 172.05366683 252.91537404 C172.03018361 248.717857 172.05699746 244.52127116 172.08381635 240.32382101 C172.14654577 230.41724464 172.1280195 220.51314214 172.05639648 210.60668945 C171.98385746 200.40470049 172.03841338 190.2091002 172.15737075 180.00769049 C172.25577851 171.23067185 172.27995136 162.45562279 172.24407083 153.67812532 C172.22309913 148.44346249 172.22859181 143.2124438 172.30357933 137.9781971 C173.60119768 117.79742763 173.60119768 117.79742763 167.94119644 99.15467453 C163.56865254 95.08709071 158.8429787 93.14499825 153.12990761 91.64260674 C149.50283399 90.53616404 146.75077194 88.61356864 143.61816406 86.49609375 C140.52425646 84.53647785 137.44275124 82.72689745 134.15332031 81.125 C128.74982316 78.46893548 123.6118344 75.36959208 118.43066406 72.30859375 C111.26620519 68.10034363 104.08953567 63.9318883 96.80566406 59.93359375 C88.68557118 55.47247465 80.69511107 50.80145358 72.70385742 46.11425781 C65.91063774 42.13821513 59.06909616 38.2681658 52.171875 34.47607422 C47.24478637 31.75848734 42.38957687 28.93821409 37.55566406 26.05859375 C30.00868912 21.56292268 22.31172446 17.37242993 14.57666016 13.21044922 C8.78885108 10.07705267 3.23042063 6.81133089 -2.17089844 3.04296875 C-6.43764287 0.70367258 -9.28230505 2.29125645 -13.06152344 4.57421875 Z " fill="#B3733C" transform="translate(256.1943359375,53.06640625)"/>
<path d="M0 0 C2.58958419 1.43204736 5.1375278 2.92060612 7.68066406 4.43359375 C9.58011349 5.54216398 11.47985524 6.65023347 13.37988281 7.7578125 C14.774729 8.57644775 14.774729 8.57644775 16.19775391 9.41162109 C19.60559682 11.40043337 23.04547776 13.32752616 26.49316406 15.24609375 C33.20949915 19.0072414 39.88719151 22.83552062 46.55776978 26.67709351 C48.26189593 27.65839049 49.96675392 28.6384162 51.67163086 29.6184082 C56.23523064 32.25108164 60.78259257 34.88777868 65.23144531 37.7109375 C68.23136714 39.61034241 71.278745 41.22830101 74.49316406 42.74609375 C81.21273229 46.04232583 87.47537383 49.95318398 93.80566406 53.93359375 C99.72475061 57.57209107 105.72000588 61.00705684 111.83300781 64.30859375 C116.93404831 67.09707318 121.96661396 70.00578491 127.00732422 72.90136719 C129.35693872 74.25001912 131.70915317 75.59408967 134.06176758 76.9375 C135.22794136 77.60360514 136.39379253 78.27027539 137.55932617 78.9375 C140.44588545 80.58948772 143.33675302 82.2324069 146.23535156 83.86328125 C148.48465454 85.13329586 150.71880597 86.43063766 152.93457031 87.75830078 C155.55110167 89.29102453 158.161542 90.52756427 160.96630859 91.67578125 C165.55135006 93.73667183 169.68961332 95.88758577 172.80566406 99.93359375 C175.42909397 107.59286639 174.3050982 116.12183145 173.80566406 124.05859375 C173.72532142 126.27708726 173.65233222 128.49586 173.58691406 130.71484375 C173.41140013 136.1272287 173.14455506 141.52910843 172.80566406 146.93359375 C172.47566406 146.93359375 172.14566406 146.93359375 171.80566406 146.93359375 C171.47566406 154.85359375 171.14566406 162.77359375 170.80566406 170.93359375 C170.47566406 170.93359375 170.14566406 170.93359375 169.80566406 170.93359375 C169.80566406 148.16359375 169.80566406 125.39359375 169.80566406 101.93359375 C168.15566406 101.27359375 166.50566406 100.61359375 164.80566406 99.93359375 C162.62083433 98.75842018 160.45567104 97.54632712 158.30566406 96.30859375 C157.69835449 95.95958008 157.09104492 95.61056641 156.46533203 95.25097656 C151.21548635 92.21495398 146.06540532 89.03243809 140.93847656 85.79296875 C138.67666449 84.45054662 136.48832176 83.25955899 134.13378906 82.11328125 C128.73614836 79.46252823 123.60526611 76.36571158 118.43066406 73.30859375 C111.26620519 69.10034363 104.08953567 64.9318883 96.80566406 60.93359375 C88.68557118 56.47247465 80.69511107 51.80145358 72.70385742 47.11425781 C65.91063774 43.13821513 59.06909616 39.2681658 52.171875 35.47607422 C47.24478637 32.75848734 42.38957687 29.93821409 37.55566406 27.05859375 C30.00804513 22.56253906 22.31326032 18.36546402 14.57226562 14.21264648 C8.79760201 11.0938171 3.31928749 7.83486849 -1.97558594 3.9453125 C-5.25482572 2.45002535 -6.73230668 2.8658651 -10.19433594 3.93359375 C-13.6373754 5.69549766 -16.90637405 7.71240157 -20.19433594 9.74609375 C-27.95079193 14.44506075 -35.7676052 18.95451823 -43.75683594 23.24609375 C-50.46702188 26.86203845 -57.01664379 30.60474719 -63.46386719 34.67578125 C-69.84592625 38.61431756 -76.47683497 42.14627632 -83.03100586 45.78710938 C-89.5460487 49.41740149 -95.92362832 53.16920691 -102.23339844 57.14453125 C-106.27238777 59.58497599 -110.43724514 61.75304099 -114.61743164 63.93945312 C-119.79073287 66.66594963 -124.73075609 69.69581645 -129.68652344 72.80078125 C-135.99658547 76.69375626 -142.55692599 80.16898022 -149.04882812 83.74609375 C-156.00489249 87.59615031 -162.89337638 91.5649536 -169.73339844 95.6171875 C-170.50546631 96.07416016 -171.27753418 96.53113281 -172.07299805 97.00195312 C-173.58330391 97.89756434 -175.09200139 98.79589484 -176.59887695 99.69726562 C-177.28393311 100.10396484 -177.96898926 100.51066406 -178.67480469 100.9296875 C-179.58588989 101.47387329 -179.58588989 101.47387329 -180.51538086 102.02905273 C-182.19433594 102.93359375 -182.19433594 102.93359375 -185.19433594 103.93359375 C-185.02075195 101.64941406 -185.02075195 101.64941406 -184.19433594 98.93359375 C-181.94799805 97.13183594 -181.94799805 97.13183594 -178.97167969 95.48046875 C-177.88363037 94.86582764 -176.79558105 94.25118652 -175.67456055 93.61791992 C-174.49381647 92.97284402 -173.31290478 92.32807485 -172.13183594 91.68359375 C-170.93117121 91.01238874 -169.7313848 90.33961022 -168.5324707 89.6652832 C-166.16435504 88.33676338 -163.79155315 87.01741663 -161.41308594 85.70751953 C-158.10219352 83.88281199 -154.80454092 82.03609524 -151.51123047 80.17993164 C-150.25561224 79.47252501 -148.99876738 78.7672913 -147.74072266 78.06420898 C-142.50837811 75.13598477 -137.35291907 72.08509297 -132.19799805 69.02319336 C-124.55368079 64.50896909 -116.78748665 60.21248622 -109.01098633 55.9309082 C-103.61717429 52.94007142 -98.42985034 49.81484738 -93.33544922 46.34082031 C-89.72907635 43.97056567 -85.9346451 41.96758191 -82.13183594 39.93359375 C-74.39908079 35.74233509 -66.77550057 31.3928877 -59.19433594 26.93359375 C-50.95614314 22.08844945 -42.65027141 17.41024541 -34.24731445 12.85791016 C-28.05536948 9.47543149 -22.0573913 5.83954392 -16.12792969 2.01660156 C-10.25994517 -1.75345417 -6.57602044 -3.19582302 0 0 Z " fill="#B4743C" transform="translate(256.1943359375,53.06640625)"/>
<path d="M0 0 C4 3 4 3 4.49219131 6.32082653 C4.50903405 7.72576649 4.50354408 9.13107412 4.48101807 10.53593445 C4.48443577 11.31028912 4.48785347 12.08464379 4.49137473 12.88246375 C4.49798001 15.48541054 4.47593473 18.08733328 4.45410156 20.69018555 C4.45297365 22.55267309 4.45360584 24.41516242 4.45587158 26.27764893 C4.45702187 31.34151432 4.43346172 36.40500271 4.40557575 41.46878028 C4.38061441 46.7578795 4.37822426 52.04698683 4.37347412 57.33613586 C4.36102884 67.3552967 4.32818621 77.37428349 4.28807616 87.39336759 C4.24340674 98.79827421 4.22138357 110.20318904 4.20129442 121.60816133 C4.15945496 145.07220414 4.08907274 168.53609233 4 192 C2.68 191.67 1.36 191.34 0 191 C0 127.97 0 64.94 0 0 Z " fill="#AA6934" transform="translate(70,153)"/>
<path d="M0 0 C0.33 0 0.66 0 1 0 C1 63.69 1 127.38 1 193 C0.67 193 0.34 193 0 193 C-0.33 173.53 -0.66 154.06 -1 134 C-1.33 134 -1.66 134 -2 134 C-2.75351184 126.17400348 -3.1488225 118.43879355 -3.1328125 110.578125 C-3.13413177 109.52604858 -3.13545105 108.47397217 -3.1368103 107.39001465 C-3.13870738 104.00997863 -3.13243258 100.63002742 -3.125 97.25 C-3.12367065 95.5255365 -3.12367065 95.5255365 -3.12231445 93.76623535 C-3.10546068 75.16160908 -2.80777241 56.5873588 -2 38 C-1.67 38 -1.34 38 -1 38 C-0.67 25.46 -0.34 12.92 0 0 Z " fill="#A2602B" transform="translate(429,154)"/>
<path d="M0 0 C0 0.66 0 1.32 0 2 C-0.639375 2.268125 -1.27875 2.53625 -1.9375 2.8125 C-4.33131686 3.88667752 -4.33131686 3.88667752 -5 7 C-6.99609375 8.16796875 -6.99609375 8.16796875 -9.4375 9.1875 C-10.64212891 9.70376953 -10.64212891 9.70376953 -11.87109375 10.23046875 C-14 11 -14 11 -16 11 C-16 11.66 -16 12.32 -16 13 C-16.66 13 -17.32 13 -18 13 C-18 15.97 -18 18.94 -18 22 C-18.33 22 -18.66 22 -19 22 C-19.08153933 20.41753293 -19.13943557 18.83383727 -19.1875 17.25 C-19.22230469 16.36828125 -19.25710937 15.4865625 -19.29296875 14.578125 C-18.93345807 11.41443099 -18.22164728 10.26428017 -16 8 C-13.40625 6.3671875 -13.40625 6.3671875 -10.5 4.875 C-1.10362694 0 -1.10362694 0 0 0 Z " fill="#61210F" transform="translate(82,139)"/>
<path d="M0 0 C2.88437779 1.29299694 4.87219421 2.65941363 7 5 C5.35 6.65 3.7 8.3 2 10 C0.68 9.34 -0.64 8.68 -2 8 C-1.7525 7.1028125 -1.7525 7.1028125 -1.5 6.1875 C-0.8885876 3.88655664 -0.8885876 3.88655664 -1 1 C-0.67 0.67 -0.34 0.34 0 0 Z " fill="#AE6D33" transform="translate(221,160)"/>
<path d="M0 0 C0.66 0.33 1.32 0.66 2 1 C0.34037446 5.05577129 -2.5034927 8.01632392 -5.4375 11.1875 C-5.92798828 11.73341797 -6.41847656 12.27933594 -6.92382812 12.84179688 C-9.24582717 15.37061365 -10.69134807 16.89711602 -14 18 C-14 17.34 -14 16.68 -14 16 C-13.34 16 -12.68 16 -12 16 C-12 15.34 -12 14.68 -12 14 C-11.34 14 -10.68 14 -10 14 C-10 13.34 -10 12.68 -10 12 C-9.34 12 -8.68 12 -8 12 C-8 11.34 -8 10.68 -8 10 C-7.34 10 -6.68 10 -6 10 C-6 9.34 -6 8.68 -6 8 C-5.34 8 -4.68 8 -4 8 C-3.896875 7.236875 -3.79375 6.47375 -3.6875 5.6875 C-2.95635961 2.82940576 -2.23048087 1.84257115 0 0 Z " fill="#AE6C3A" transform="translate(368,202)"/>
<path d="M0 0 C0.66 0.99 1.32 1.98 2 3 C-2.14243673 8.72630959 -2.14243673 8.72630959 -5.9375 9.9375 C-9.09980089 10.00203675 -11.91116689 9.66189281 -15 9 C-14.67 8.34 -14.34 7.68 -14 7 C-12.109375 6.54296875 -12.109375 6.54296875 -9.75 6.1875 C-4.98847756 5.25342143 -3.03345615 3.71843012 0 0 Z " fill="#B06F37" transform="translate(152,188)"/>
<path d="M0 0 C3.82816757 2.02242815 6.89070191 4.1536329 9 8 C8.67 8.99 8.34 9.98 8 11 C8 10.34 8 9.68 8 9 C7.34 9 6.68 9 6 9 C6 8.01 6 7.02 6 6 C1.97374444 3.74529689 -2.66477 1.55819973 -7.3125 2.4375 C-7.869375 2.623125 -8.42625 2.80875 -9 3 C-9.66 2.67 -10.32 2.34 -11 2 C-7.29211504 -0.47192331 -4.30054275 -0.66788732 0 0 Z " fill="#662203" transform="translate(334,199)"/>
<path d="M0 0 C3.3 1.65 6.6 3.3 10 5 C10 5.33 10 5.66 10 6 C7.36 6.33 4.72 6.66 2 7 C2 7.66 2 8.32 2 9 C-2.875 7.25 -2.875 7.25 -4 5 C-2.68 5 -1.36 5 0 5 C0 4.01 0 3.02 0 2 C0 1.34 0 0.68 0 0 Z " fill="#60210B" transform="translate(323,84)"/>
<path d="M0 0 C2.475 0.99 2.475 0.99 5 2 C1.53258866 4.95749791 -1.86873527 7.07848152 -6 9 C-6 8.34 -6 7.68 -6 7 C-6.99 6.67 -7.98 6.34 -9 6 C-8.67 5.34 -8.34 4.68 -8 4 C-7.34 4 -6.68 4 -6 4 C-6 4.66 -6 5.32 -6 6 C-1.93975679 3.96197865 -1.93975679 3.96197865 0 0 Z " fill="#5B1F0F" transform="translate(284,434)"/>
<path d="M0 0 C1.65161581 0.75836443 3.29617138 1.53212076 4.9375 2.3125 C5.85402344 2.74175781 6.77054687 3.17101562 7.71484375 3.61328125 C10 5 10 5 11 8 C7.43369592 8.198128 4.90289904 8.20219927 2 6 C0.75 2.875 0.75 2.875 0 0 Z " fill="#B17036" transform="translate(389,130)"/>
<path d="M0 0 C0.66 0 1.32 0 2 0 C1.65544802 3.10096781 1.15182706 4.79937138 -0.75 7.3125 C-3.41238939 9.30929204 -4.74952319 9.36116409 -8 9 C-8.33 8.34 -8.66 7.68 -9 7 C-8.34 6.34 -7.68 5.68 -7 5 C-6.34 5.66 -5.68 6.32 -5 7 C-2.47411298 4.63707344 -1.11179163 3.33537489 0 0 Z " fill="#B16E37" transform="translate(154,212)"/>
<path d="M0 0 C1.81612488 0.95144598 3.62781081 1.91136933 5.4375 2.875 C6.44683594 3.40867188 7.45617187 3.94234375 8.49609375 4.4921875 C11 6 11 6 12 8 C11.236875 7.690625 10.47375 7.38125 9.6875 7.0625 C7.81210323 6.32106407 5.91315348 5.63771783 4 5 C1.80961577 6.37168238 1.80961577 6.37168238 0 8 C0 5.36 0 2.72 0 0 Z " fill="#611E0E" transform="translate(257,46)"/>
<path d="M0 0 C0.99 0.33 1.98 0.66 3 1 C1.68 2.32 0.36 3.64 -1 5 C-0.67 5.598125 -0.34 6.19625 0 6.8125 C1 9 1 9 1 12 C-0.32 11.34 -1.64 10.68 -3 10 C-3 7.69 -3 5.38 -3 3 C-2.01 2.67 -1.02 2.34 0 2 C0 1.34 0 0.68 0 0 Z " fill="#AE6D36" transform="translate(266,255)"/>
<path d="M0 0 C0 3 0 3 -1 6 C-3.875 8.75 -3.875 8.75 -7 11 C-7.99 10.67 -8.98 10.34 -10 10 C-6.7 6.7 -3.4 3.4 0 0 Z " fill="#652005" transform="translate(281,243)"/>
<path d="M0 0 C3.38629758 1.45127039 5.48853911 3.32650937 8 6 C8.5775 6.5775 9.155 7.155 9.75 7.75 C10.1625 8.1625 10.575 8.575 11 9 C10.67 9.99 10.34 10.98 10 12 C8.51476358 10.56877218 7.03699538 9.12979111 5.5625 7.6875 C4.73878906 6.88699219 3.91507813 6.08648437 3.06640625 5.26171875 C1 3 1 3 0 0 Z " fill="#AC6938" transform="translate(218,241)"/>
<path d="M0 0 C1.231394 2.46278801 1.07159196 4.2795055 1 7 C0.01 7 -0.98 7 -2 7 C-4.01151741 7.63106429 -6.01363702 8.29373761 -8 9 C-7.04270084 7.87411986 -6.08412105 6.7493285 -5.125 5.625 C-4.59132813 4.99851563 -4.05765625 4.37203125 -3.5078125 3.7265625 C-2.38567993 2.44163349 -1.20628025 1.20628025 0 0 Z " fill="#B06F33" transform="translate(269,230)"/>
<path d="M0 0 C0.66 0.66 1.32 1.32 2 2 C0.35 2.66 -1.3 3.32 -3 4 C-3 4.66 -3 5.32 -3 6 C-3.66 6 -4.32 6 -5 6 C-5 8.97 -5 11.94 -5 15 C-5.33 15 -5.66 15 -6 15 C-6.08153933 13.41753293 -6.13943557 11.83383727 -6.1875 10.25 C-6.22230469 9.36828125 -6.25710937 8.4865625 -6.29296875 7.578125 C-5.94262147 4.49506897 -5.14001467 3.21484036 -3 1 C-2.01 0.67 -1.02 0.34 0 0 Z " fill="#531A0C" transform="translate(69,146)"/>
<path d="M0 0 C0.99 0.33 1.98 0.66 3 1 C2.01 1.495 2.01 1.495 1 2 C0.34786708 4.02463255 0.34786708 4.02463255 0 6 C0.99 6.33 1.98 6.66 3 7 C2.01 7.66 1.02 8.32 0 9 C-1.5625 7.75 -1.5625 7.75 -3 6 C-2.72963853 3.02602384 -2.14553974 2.14553974 0 0 Z " fill="#B06E3B" transform="translate(276,161)"/>
<path d="M0 0 C6.71700347 -0.31985731 11.75726932 0.5206176 18 3 C15.03104944 3.98965019 13.0913386 4.23779528 10 4 C9.34 3.34 8.68 2.68 8 2 C5.34462628 1.43479997 2.70855287 1.26211802 0 1 C0 0.67 0 0.34 0 0 Z " fill="#B06E39" transform="translate(304,155)"/>
<path d="M0 0 C0.66 0.33 1.32 0.66 2 1 C1.360625 1.268125 0.72125 1.53625 0.0625 1.8125 C-2.33131686 2.88667752 -2.33131686 2.88667752 -3 6 C-5.5625 7.1875 -5.5625 7.1875 -8 8 C-8.66 7.34 -9.32 6.68 -10 6 C-8.3811004 4.96951963 -6.75467511 3.95085322 -5.125 2.9375 C-4.22007812 2.36902344 -3.31515625 1.80054687 -2.3828125 1.21484375 C-1.20332031 0.61349609 -1.20332031 0.61349609 0 0 Z " fill="#571E0E" transform="translate(134,108)"/>
<path d="M0 0 C0.99 0.99 1.98 1.98 3 3 C3.33 2.34 3.66 1.68 4 1 C4.66 2.32 5.32 3.64 6 5 C5.01 6.485 5.01 6.485 4 8 C2.02 5.69 0.04 3.38 -2 1 C-1.34 0.67 -0.68 0.34 0 0 Z " fill="#B06F34" transform="translate(273,296)"/>
<path d="M0 0 C1.32 0.33 2.64 0.66 4 1 C1.36 3.64 -1.28 6.28 -4 9 C-4.33 8.34 -4.66 7.68 -5 7 C-3.35 4.69 -1.7 2.38 0 0 Z " fill="#AF6D3A" transform="translate(316,203)"/>
<path d="M0 0 C0.66 0.33 1.32 0.66 2 1 C-1.67832102 5.0655127 -5.56866979 7.22409568 -11 8 C-7.71644638 4.32241995 -4.37221763 2.18610882 0 0 Z " fill="#5A1E0E" transform="translate(245,44)"/>
<path d="M0 0 C2.97 0.495 2.97 0.495 6 1 C6 2.65 6 4.3 6 6 C4.02 5.01 2.04 4.02 0 3 C0 2.01 0 1.02 0 0 Z " fill="#B06F32" transform="translate(118,372)"/>
<path d="M0 0 C0.66 0.33 1.32 0.66 2 1 C1.67 1.99 1.34 2.98 1 4 C-1.50390625 4.94921875 -1.50390625 4.94921875 -4.5625 5.6875 C-5.57441406 5.93886719 -6.58632812 6.19023438 -7.62890625 6.44921875 C-8.41136719 6.63097656 -9.19382813 6.81273438 -10 7 C-8.67408323 4.34816647 -7.13437549 3.74863527 -4.5625 2.3125 C-3.75941406 1.85488281 -2.95632812 1.39726563 -2.12890625 0.92578125 C-1.42636719 0.62027344 -0.72382813 0.31476563 0 0 Z " fill="#5D1F0F" transform="translate(179,82)"/>
<path d="M0 0 C3 0 3 0 5 1 C4.38125 1.5775 3.7625 2.155 3.125 2.75 C1.18652947 4.80249821 0.09985751 6.43366582 -1 9 C-2.0326802 6.21176345 -2.04509293 5.1322726 -1.0625 2.25 C-0.711875 1.5075 -0.36125 0.765 0 0 Z " fill="#641D07" transform="translate(155,174)"/>
<path d="M0 0 C1.32 0.66 2.64 1.32 4 2 C3.67 3.32 3.34 4.64 3 6 C0.525 5.01 0.525 5.01 -2 4 C-1.34 2.68 -0.68 1.36 0 0 Z " fill="#682319" transform="translate(325,408)"/>
<path d="M0 0 C0.33 0 0.66 0 1 0 C0.50769231 7.38461538 0.50769231 7.38461538 -2.0625 10.5 C-2.701875 10.995 -3.34125 11.49 -4 12 C-4 11.01 -4 10.02 -4 9 C-3.34 9 -2.68 9 -2 9 C-2.33 8.01 -2.66 7.02 -3 6 C-1.5625 2.8125 -1.5625 2.8125 0 0 Z " fill="#651F05" transform="translate(311,179)"/>
<path d="M0 0 C3.96 1.98 3.96 1.98 8 4 C7.01 4.495 7.01 4.495 6 5 C3.875 4.0625 3.875 4.0625 2 3 C2.33 3.99 2.66 4.98 3 6 C2.01 6.495 2.01 6.495 1 7 C1 5.68 1 4.36 1 3 C0.34 2.67 -0.32 2.34 -1 2 C-0.67 1.34 -0.34 0.68 0 0 Z " fill="#651D10" transform="translate(389,122)"/>
<path d="M0 0 C1.98 0.66 3.96 1.32 6 2 C6 3.32 6 4.64 6 6 C5.34 5.67 4.68 5.34 4 5 C4.33 4.34 4.66 3.68 5 3 C3.35 3.66 1.7 4.32 0 5 C-0.33 4.01 -0.66 3.02 -1 2 C-0.67 1.34 -0.34 0.68 0 0 Z " fill="#A76622" transform="translate(317,338)"/>
<path d="M0 0 C2 0 2 0 3.625 1.1875 C5.42149467 3.55560662 5.23521845 5.09897251 5 8 C2.5 5.6875 2.5 5.6875 0 3 C0 2.01 0 1.02 0 0 Z " fill="#AE6C39" transform="translate(307,169)"/>
<path d="M0 0 C1.98 0.99 3.96 1.98 6 3 C6 3.99 6 4.98 6 6 C4.02 5.01 2.04 4.02 0 3 C0 2.01 0 1.02 0 0 Z " fill="#651F05" transform="translate(296,81)"/>
<path d="M0 0 C1.875 0.3125 1.875 0.3125 4 1 C4.66 1.99 5.32 2.98 6 4 C5.67 4.99 5.34 5.98 5 7 C3.29115995 5.37660195 1.62553283 3.70680947 0 2 C0 1.34 0 0.68 0 0 Z " fill="#A86733" transform="translate(190,212)"/>
<path d="M0 0 C2.31 1.98 4.62 3.96 7 6 C6.34 6.66 5.68 7.32 5 8 C2.5 5.6875 2.5 5.6875 0 3 C0 2.01 0 1.02 0 0 Z " fill="#A7642F" transform="translate(203,202)"/>
<path d="M0 0 C-1.39332574 3.36720387 -2.9789286 4.9859524 -6 7 C-5.39816251 4.97954558 -4.72693904 2.97888961 -4 1 C-2 0 -2 0 0 0 Z " fill="#6B2607" transform="translate(296,202)"/>
<path d="M0 0 C0.66 0 1.32 0 2 0 C1.46930939 3.82097239 0.50298434 6.06171403 -2 9 C-1.125 1.125 -1.125 1.125 0 0 Z " fill="#A86633" transform="translate(157,203)"/>
<path d="M0 0 C0.66 0.33 1.32 0.66 2 1 C1.67 1.99 1.34 2.98 1 4 C-0.9375 4.8125 -0.9375 4.8125 -3 5 C-3.66 4.34 -4.32 3.68 -5 3 C-2.625 1.4375 -2.625 1.4375 0 0 Z " fill="#63220E" transform="translate(152,98)"/>
<path d="M0 0 C0.33 0.66 0.66 1.32 1 2 C0.01 2.495 0.01 2.495 -1 3 C-1 3.99 -1 4.98 -1 6 C-2.65 5.67 -4.3 5.34 -6 5 C-2.25 1.125 -2.25 1.125 0 0 Z " fill="#BB7C46" transform="translate(244,53)"/>
<path d="M0 0 C2.3125 -0.3125 2.3125 -0.3125 5 0 C6.8125 2.5 6.8125 2.5 8 5 C4.62496331 3.8141763 2.35277269 2.72426311 0 0 Z " fill="#601D13" transform="translate(178,416)"/>
<path d="M0 0 C1.7074998 1.28062485 3.37373596 2.61767557 5 4 C5 4.66 5 5.32 5 6 C4.01 6 3.02 6 2 6 C2 5.34 2 4.68 2 4 C1.01 3.67 0.02 3.34 -1 3 C-0.67 2.01 -0.34 1.02 0 0 Z " fill="#A2612A" transform="translate(323,318)"/>
<path d="M0 0 C2.0625 0.4375 2.0625 0.4375 4 1 C2.71034824 2.37562854 1.37310707 3.70766393 0 5 C-0.66 5 -1.32 5 -2 5 C-1.125 1.125 -1.125 1.125 0 0 Z " fill="#6E2708" transform="translate(229,264)"/>
<path d="M0 0 C1.33332095 2.6666419 0.67102033 4.16680303 0 7 C-1.32 6.34 -2.64 5.68 -4 5 C-2.68 3.35 -1.36 1.7 0 0 Z " fill="#B06F34" transform="translate(293,206)"/>
<path d="M0 0 C2.5 1.3125 2.5 1.3125 5 3 C5 3.99 5 4.98 5 6 C4.01 6 3.02 6 2 6 C1.34 4.02 0.68 2.04 0 0 Z " fill="#B07239" transform="translate(402,137)"/>
<path d="M0 0 C1.32 0 2.64 0 4 0 C4.33 0.99 4.66 1.98 5 3 C3.02 3.33 1.04 3.66 -1 4 C-0.67 2.68 -0.34 1.36 0 0 Z " fill="#AF6E32" transform="translate(165,98)"/>
</svg>
